<svg width="255" height="106" viewBox="0 0 255 106" fill="none" xmlns="http://www.w3.org/2000/svg">
<path d="M23.1313 48.6859C19.3325 48.6859 15.9206 47.8593 12.8956 46.2061C9.87057 44.5177 7.4963 42.2138 5.77276 39.2944C4.08439 36.3749 3.24021 33.1213 3.24021 29.5335C3.24021 25.9457 4.08439 22.6921 5.77276 19.7726C7.4963 16.8531 9.87057 14.5668 12.8956 12.9136C15.9206 11.2252 19.3325 10.3811 23.1313 10.3811C26.508 10.3811 29.533 10.9966 32.2063 12.2277C34.8795 13.4588 37.1131 15.2527 38.907 17.6094L34.0529 21.7248C31.7314 18.2777 28.0909 16.5542 23.1313 16.5542C20.5987 16.5542 18.3124 17.1345 16.2723 18.2953C14.2322 19.4209 12.6318 20.9685 11.471 22.9383C10.3102 24.9081 9.72987 27.1065 9.72987 29.5335C9.72987 32.066 10.3454 34.3699 11.5765 36.4452C12.8076 38.4853 14.4784 40.1034 16.5889 41.2993C18.7345 42.46 21.1264 43.0404 23.7644 43.0404C27.9853 43.0404 31.3797 41.5631 33.9474 38.6085V33.2795H22.6564V27.8979H39.3818V41.9324C36.9548 44.2891 34.475 46.0127 31.9425 47.1031C29.4099 48.1583 26.4728 48.6859 23.1313 48.6859ZM64.7094 48.6859C60.9457 48.6859 57.5514 47.8417 54.5264 46.1533C51.5366 44.465 49.1799 42.1786 47.4564 39.2944C45.768 36.3749 44.9238 33.1213 44.9238 29.5335C44.9238 25.9457 45.768 22.7097 47.4564 19.8254C49.1799 16.9059 51.5366 14.602 54.5264 12.9136C57.5514 11.2252 60.9457 10.3811 64.7094 10.3811C68.473 10.3811 71.8498 11.2252 74.8396 12.9136C77.8646 14.602 80.2213 16.9059 81.9096 19.8254C83.598 22.7097 84.4422 25.9457 84.4422 29.5335C84.4422 33.1213 83.598 36.3749 81.9096 39.2944C80.2213 42.1786 77.8646 44.465 74.8396 46.1533C71.8498 47.8417 68.473 48.6859 64.7094 48.6859ZM64.7094 42.5128C67.1716 42.5128 69.4228 41.95 71.4629 40.8244C73.503 39.6637 75.1034 38.0984 76.2642 36.1287C77.4249 34.1589 78.0053 31.9605 78.0053 29.5335C78.0053 27.1065 77.4249 24.9081 76.2642 22.9383C75.1034 20.9685 73.503 19.4209 71.4629 18.2953C69.4228 17.1345 67.1716 16.5542 64.7094 16.5542C62.2472 16.5542 59.996 17.1345 57.9559 18.2953C55.9158 19.4209 54.3154 20.9685 53.1546 22.9383C51.9939 24.9081 51.4135 27.1065 51.4135 29.5335C51.4135 31.9605 51.9939 34.1589 53.1546 36.1287C54.3154 38.0984 55.9158 39.6637 57.9559 40.8244C59.996 41.95 62.2472 42.5128 64.7094 42.5128ZM96.9248 48H90.5934V11.067H96.9248V26.315H102.887L115.339 11.067H122.409L107.583 29.3752L122.409 48H114.864L102.465 32.6464H96.9248V48ZM134.28 48H127.949V11.067H134.28V48ZM160.239 48.6859C156.44 48.6859 153.028 47.8593 150.003 46.2061C146.978 44.5177 144.604 42.2138 142.88 39.2944C141.192 36.3749 140.348 33.1213 140.348 29.5335C140.348 25.9457 141.192 22.6921 142.88 19.7726C144.604 16.8531 146.978 14.5668 150.003 12.9136C153.028 11.2252 156.44 10.3811 160.239 10.3811C163.616 10.3811 166.641 10.9966 169.314 12.2277C171.987 13.4588 174.221 15.2527 176.015 17.6094L171.161 21.7248C168.839 18.2777 165.199 16.5542 160.239 16.5542C157.706 16.5542 155.42 17.1345 153.38 18.2953C151.34 19.4209 149.739 20.9685 148.579 22.9383C147.418 24.9081 146.838 27.1065 146.838 29.5335C146.838 32.066 147.453 34.3699 148.684 36.4452C149.915 38.4853 151.586 40.1034 153.697 41.2993C155.842 42.46 158.234 43.0404 160.872 43.0404C165.093 43.0404 168.487 41.5631 171.055 38.6085V33.2795H159.764V27.8979H176.49V41.9324C174.063 44.2891 171.583 46.0127 169.05 47.1031C166.518 48.1583 163.581 48.6859 160.239 48.6859ZM211.719 48H183.544V11.067H211.719V16.7652H189.876V26.9482H206.179V32.6464H189.876V42.3018H211.719V48ZM224.81 48H218.478V11.067H224.915L244.595 37.7115V11.067H250.979V48H244.595L224.81 21.3555V48ZM48.105 101H41.7736V64.067H48.2105L62.6672 88.9704L77.071 64.067H83.5079V101H77.1766V75.78L65.4635 95.8294H59.7653L48.105 75.78V101ZM109.356 101.686C105.592 101.686 102.198 100.842 99.1727 99.1533C96.1829 97.465 93.8262 95.1786 92.1027 92.2944C90.4143 89.3749 89.5701 86.1213 89.5701 82.5335C89.5701 78.9457 90.4143 75.7097 92.1027 72.8254C93.8262 69.9059 96.1829 67.602 99.1727 65.9136C102.198 64.2252 105.592 63.3811 109.356 63.3811C113.119 63.3811 116.496 64.2252 119.486 65.9136C122.511 67.602 124.868 69.9059 126.556 72.8254C128.244 75.7097 129.088 78.9457 129.088 82.5335C129.088 86.1213 128.244 89.3749 126.556 92.2944C124.868 95.1786 122.511 97.465 119.486 99.1533C116.496 100.842 113.119 101.686 109.356 101.686ZM109.356 95.5128C111.818 95.5128 114.069 94.95 116.109 93.8244C118.149 92.6637 119.75 91.0984 120.91 89.1287C122.071 87.1589 122.652 84.9605 122.652 82.5335C122.652 80.1065 122.071 77.9081 120.91 75.9383C119.75 73.9685 118.149 72.4209 116.109 71.2953C114.069 70.1345 111.818 69.5542 109.356 69.5542C106.894 69.5542 104.642 70.1345 102.602 71.2953C100.562 72.4209 98.9617 73.9685 97.8009 75.9383C96.6402 77.9081 96.0598 80.1065 96.0598 82.5335C96.0598 84.9605 96.6402 87.1589 97.8009 89.1287C98.9617 91.0984 100.562 92.6637 102.602 93.8244C104.642 94.95 106.894 95.5128 109.356 95.5128ZM153.719 101.686C149.955 101.686 146.561 100.842 143.536 99.1533C140.546 97.465 138.189 95.1786 136.466 92.2944C134.777 89.3749 133.933 86.1213 133.933 82.5335C133.933 78.9457 134.777 75.7097 136.466 72.8254C138.189 69.9059 140.546 67.602 143.536 65.9136C146.561 64.2252 149.955 63.3811 153.719 63.3811C157.482 63.3811 160.859 64.2252 163.849 65.9136C166.874 67.602 169.231 69.9059 170.919 72.8254C172.607 75.7097 173.451 78.9457 173.451 82.5335C173.451 86.1213 172.607 89.3749 170.919 92.2944C169.231 95.1786 166.874 97.465 163.849 99.1533C160.859 100.842 157.482 101.686 153.719 101.686ZM153.719 95.5128C156.181 95.5128 158.432 94.95 160.472 93.8244C162.512 92.6637 164.113 91.0984 165.273 89.1287C166.434 87.1589 167.015 84.9605 167.015 82.5335C167.015 80.1065 166.434 77.9081 165.273 75.9383C164.113 73.9685 162.512 72.4209 160.472 71.2953C158.432 70.1345 156.181 69.5542 153.719 69.5542C151.256 69.5542 149.005 70.1345 146.965 71.2953C144.925 72.4209 143.325 73.9685 142.164 75.9383C141.003 77.9081 140.423 80.1065 140.423 82.5335C140.423 84.9605 141.003 87.1589 142.164 89.1287C143.325 91.0984 144.925 92.6637 146.965 93.8244C149.005 94.95 151.256 95.5128 153.719 95.5128ZM179.603 101V64.067H194.429C198.368 64.067 201.815 64.876 204.77 66.494C207.76 68.0768 210.046 70.2752 211.629 73.0892C213.247 75.8679 214.056 79.016 214.056 82.5335C214.056 86.0509 213.247 89.2166 211.629 92.0305C210.046 94.8093 207.76 97.0077 204.77 98.6257C201.815 100.209 198.368 101 194.429 101H179.603ZM194.429 94.9852C196.926 94.9852 199.177 94.4928 201.182 93.5079C203.187 92.4878 204.752 91.0457 205.878 89.1814C207.039 87.3172 207.619 85.1012 207.619 82.5335C207.619 79.9658 207.039 77.7498 205.878 75.8855C204.752 74.0213 203.187 72.5967 201.182 71.6119C199.177 70.5918 196.926 70.0818 194.429 70.0818H185.934V94.9852H194.429Z" fill="white"/>
<path d="M100.298 54.0613C99.8 54.2604 99.123 54.6288 98.2668 55.1664C98.1805 55.2195 98.1042 55.2461 98.0378 55.2461C97.9249 55.2461 97.8254 55.2063 97.7391 55.1266C97.6594 55.0403 97.6196 54.9375 97.6196 54.818C97.6196 54.6653 97.686 54.5492 97.8187 54.4695L97.9482 54.3899C98.0743 54.3169 98.1373 54.2438 98.1373 54.1708C98.1373 54.0846 98.0411 54.0414 97.8486 54.0414C97.2513 54.0414 96.4349 54.0215 95.3994 53.9817C95.2733 53.975 95.1638 53.9253 95.0709 53.8323C94.9846 53.7394 94.9414 53.6299 94.9414 53.5038C94.9414 53.3644 94.9912 53.2482 95.0908 53.1553C95.197 53.0558 95.3198 53.0093 95.4592 53.0159C96.7667 53.1089 98.3066 53.1188 100.079 53.0458C100.271 53.0392 100.424 53.0856 100.537 53.1852C100.656 53.2847 100.716 53.4042 100.716 53.5436C100.716 53.7759 100.577 53.9485 100.298 54.0613ZM101.383 59.2086C101.383 59.4874 101.247 59.6533 100.975 59.7064C99.9261 59.8989 98.9139 59.9951 97.9382 59.9951C97.009 59.9951 96.2722 59.9188 95.728 59.7662C94.8386 59.5139 94.3939 59.0327 94.3939 58.3225C94.3939 57.838 94.7091 57.2805 95.3397 56.6499C95.426 56.5636 95.5355 56.5205 95.6682 56.5205C95.7943 56.5205 95.9039 56.5669 95.9968 56.6599C96.0897 56.7461 96.1362 56.8523 96.1362 56.9785C96.1362 57.0979 96.093 57.2008 96.0067 57.2871C95.6483 57.6455 95.4691 57.9542 95.4691 58.213C95.4691 58.7639 96.3121 59.0394 97.998 59.0394C98.6617 59.0394 99.5976 58.9365 100.806 58.7307C100.952 58.7042 101.084 58.7407 101.204 58.8402C101.323 58.9332 101.383 59.056 101.383 59.2086ZM102.618 55.4253C102.618 55.5315 102.578 55.6244 102.498 55.7041C102.425 55.7771 102.335 55.8136 102.229 55.8136C102.077 55.8136 101.96 55.7539 101.881 55.6344C101.662 55.3092 101.456 55.0403 101.264 54.8279C101.191 54.7483 101.154 54.6653 101.154 54.579C101.154 54.3135 101.287 54.1808 101.552 54.1808C101.652 54.1808 101.748 54.2273 101.841 54.3202C102.073 54.5525 102.309 54.8479 102.548 55.2063C102.594 55.2992 102.618 55.3722 102.618 55.4253ZM101.403 55.9928C101.403 56.099 101.363 56.1919 101.283 56.2716C101.21 56.3446 101.121 56.3811 101.015 56.3811C100.855 56.3811 100.739 56.3214 100.666 56.2019C100.474 55.8966 100.268 55.6344 100.049 55.4153C99.9759 55.3423 99.9394 55.2527 99.9394 55.1465C99.9394 54.881 100.069 54.7483 100.328 54.7483C100.441 54.7483 100.54 54.7981 100.626 54.8976C100.905 55.2096 101.137 55.5016 101.323 55.7738C101.376 55.8534 101.403 55.9264 101.403 55.9928ZM111.618 54.8678C111.618 55.0802 111.515 55.2229 111.309 55.2959C110.871 55.4485 110.473 55.568 110.115 55.6543C109.902 55.7074 109.796 55.8103 109.796 55.9629C109.796 56.0492 109.829 56.1388 109.895 56.2317C110.221 56.6831 110.523 57.0681 110.801 57.3867C110.894 57.4929 110.941 57.6123 110.941 57.7451C110.941 57.8977 110.888 58.0305 110.782 58.1433C110.675 58.2495 110.546 58.3026 110.393 58.3026C110.314 58.3026 110.237 58.2893 110.164 58.2628C109.282 57.911 108.452 57.7351 107.675 57.7351C106.401 57.7351 105.764 58.0371 105.764 58.6411C105.764 59.2318 106.567 59.5272 108.173 59.5272C108.724 59.5272 109.348 59.4907 110.045 59.4177C110.178 59.4044 110.297 59.4442 110.403 59.5372C110.509 59.6235 110.563 59.733 110.563 59.8657C110.563 60.1379 110.423 60.2872 110.144 60.3137C109.514 60.3801 108.85 60.4133 108.153 60.4133C105.916 60.4133 104.798 59.8292 104.798 58.661C104.798 57.4995 105.694 56.9187 107.486 56.9187C107.904 56.9187 108.392 56.9818 108.95 57.1079C109.003 57.1212 109.049 57.1278 109.089 57.1278C109.222 57.1278 109.288 57.0813 109.288 56.9884C109.288 56.922 109.255 56.8457 109.189 56.7594C109.155 56.713 109.066 56.5902 108.92 56.391C108.741 56.1455 108.518 56.0227 108.253 56.0227C108.173 56.0227 108.083 56.0293 107.984 56.0426C107.061 56.1687 106.049 56.2251 104.947 56.2118C104.828 56.2118 104.725 56.1687 104.639 56.0824C104.559 55.9961 104.519 55.8932 104.519 55.7738C104.519 55.6543 104.562 55.5514 104.649 55.4651C104.735 55.3722 104.838 55.3291 104.957 55.3357C105.78 55.3622 106.66 55.3257 107.596 55.2262C107.848 55.1996 107.974 55.1001 107.974 54.9275C107.974 54.8479 107.947 54.7715 107.894 54.6985C107.735 54.4264 107.506 54.3069 107.207 54.3401C106.637 54.4065 105.979 54.4397 105.236 54.4397C105.123 54.4397 105.02 54.3965 104.927 54.3102C104.841 54.2239 104.798 54.1244 104.798 54.0115C104.798 53.8921 104.841 53.7925 104.927 53.7129C105.02 53.6266 105.123 53.5834 105.236 53.5834C105.787 53.5901 106.298 53.5735 106.769 53.5336C107.048 53.5071 107.187 53.4175 107.187 53.2648C107.187 53.2582 107.128 53.1122 107.008 52.8268C106.988 52.7803 106.978 52.7272 106.978 52.6675C106.978 52.5347 107.025 52.4219 107.118 52.329C107.211 52.2294 107.327 52.1796 107.466 52.1796C107.685 52.1796 107.835 52.2858 107.914 52.4982C107.941 52.5779 107.987 52.7007 108.054 52.8666C108.153 53.1188 108.319 53.2449 108.551 53.2449C108.611 53.2449 108.674 53.235 108.741 53.2151C109.205 53.0956 109.67 52.9529 110.134 52.7869C110.188 52.767 110.237 52.7571 110.284 52.7571C110.41 52.7571 110.516 52.8002 110.602 52.8865C110.695 52.9728 110.742 53.079 110.742 53.2051C110.742 53.4308 110.636 53.5768 110.423 53.6432C109.932 53.8025 109.501 53.9253 109.129 54.0115C108.89 54.0646 108.77 54.1742 108.77 54.3401C108.77 54.4131 108.797 54.4861 108.85 54.5591L108.87 54.589C109.009 54.8014 109.179 54.9076 109.378 54.9076C109.431 54.9076 109.487 54.901 109.547 54.8877C110.071 54.7616 110.563 54.6122 111.021 54.4397C111.054 54.4264 111.1 54.4197 111.16 54.4197C111.286 54.4197 111.392 54.4629 111.479 54.5492C111.571 54.6355 111.618 54.7417 111.618 54.8678ZM121.972 54.6388C121.972 54.9043 121.843 55.0669 121.584 55.1266C121.425 55.1532 121.179 55.1996 120.847 55.266C120.548 55.3257 120.399 55.5016 120.399 55.7937V56.5404C120.399 57.4232 120.253 58.1665 119.961 58.7706C119.642 59.421 119.125 59.9719 118.408 60.4233C118.335 60.4697 118.249 60.493 118.149 60.493C118.01 60.493 117.89 60.4432 117.791 60.3436C117.691 60.2441 117.641 60.1246 117.641 59.9852C117.641 59.7993 117.721 59.6566 117.88 59.5571C118.444 59.2053 118.849 58.7706 119.095 58.2528C119.314 57.7816 119.423 57.1909 119.423 56.4807V55.9629C119.423 55.6244 119.248 55.4651 118.896 55.485C118.279 55.5249 117.844 55.5415 117.592 55.5348L117.183 55.5249C117.057 55.5249 116.948 55.4784 116.855 55.3855C116.762 55.2926 116.715 55.183 116.715 55.0569C116.715 54.9242 116.765 54.8113 116.865 54.7184C116.964 54.6189 117.08 54.5724 117.213 54.579L117.582 54.589C117.98 54.6023 118.421 54.5857 118.906 54.5392C119.238 54.506 119.394 54.3268 119.374 54.0016L119.314 52.9263C119.307 52.7869 119.35 52.6641 119.443 52.558C119.543 52.4518 119.666 52.3987 119.812 52.3987C119.944 52.3987 120.057 52.4451 120.15 52.538C120.25 52.6243 120.303 52.7338 120.31 52.8666C120.316 53.0723 120.329 53.3943 120.349 53.8323C120.369 54.1509 120.502 54.3102 120.748 54.3102C120.787 54.3102 120.831 54.3036 120.877 54.2903L121.385 54.1708C121.445 54.1576 121.484 54.1509 121.504 54.1509C121.63 54.1509 121.74 54.2007 121.833 54.3003C121.926 54.3932 121.972 54.506 121.972 54.6388ZM116.317 57.5659C116.058 58.1964 115.836 58.827 115.65 59.4575C115.557 59.7761 115.371 59.9354 115.093 59.9354C114.807 59.9354 114.621 59.7529 114.535 59.3878C114.356 58.6113 114.266 57.7185 114.266 56.7096C114.266 55.495 114.379 54.2604 114.605 53.006C114.658 52.7272 114.82 52.5878 115.093 52.5878C115.245 52.5878 115.371 52.6476 115.471 52.767C115.577 52.8865 115.617 53.0226 115.59 53.1752C115.332 54.7881 115.202 55.9994 115.202 56.8092V57.3867C115.202 57.5991 115.255 57.7052 115.361 57.7052C115.461 57.7052 115.544 57.619 115.61 57.4464L115.67 57.297C115.73 57.151 115.836 57.078 115.989 57.078C116.088 57.078 116.171 57.1145 116.238 57.1875C116.311 57.2539 116.347 57.3369 116.347 57.4364C116.347 57.4763 116.337 57.5194 116.317 57.5659ZM122.809 52.6973C122.809 52.7969 122.769 52.8832 122.689 52.9562C122.616 53.0292 122.53 53.0657 122.43 53.0657C122.284 53.0657 122.175 53.0093 122.102 52.8965C121.889 52.5845 121.693 52.329 121.514 52.1298C121.448 52.0568 121.415 51.9772 121.415 51.8909C121.415 51.6387 121.541 51.5126 121.793 51.5126C121.879 51.5126 121.969 51.559 122.062 51.6519C122.301 51.8909 122.526 52.1697 122.739 52.4883C122.785 52.5812 122.809 52.6509 122.809 52.6973ZM121.873 53.444C121.873 53.5436 121.836 53.6299 121.763 53.7029C121.697 53.7759 121.61 53.8124 121.504 53.8124C121.365 53.8124 121.199 53.6896 121.006 53.444C120.867 53.2582 120.728 53.0723 120.588 52.8865C120.515 52.8135 120.479 52.7305 120.479 52.6376C120.479 52.3854 120.605 52.2593 120.857 52.2593C120.957 52.2593 121.05 52.3057 121.136 52.3987C121.408 52.704 121.63 52.9827 121.803 53.235C121.849 53.3013 121.873 53.371 121.873 53.444ZM132.038 57.8148C131.806 58.4984 131.487 59.0792 131.082 59.5571C130.617 60.1013 130.09 60.3735 129.499 60.3735C129.001 60.3735 128.633 60.2441 128.394 59.9852C128.188 59.7529 128.049 59.3845 127.976 58.8801C127.876 58.2031 127.82 57.8314 127.806 57.765C127.72 57.3734 127.574 57.1776 127.368 57.1776C127.07 57.1776 126.648 57.4796 126.104 58.0836C125.513 58.7407 125.135 59.2783 124.969 59.6965L124.84 60.025C124.767 60.2042 124.611 60.2938 124.372 60.2938C124.226 60.2938 124.103 60.2441 124.003 60.1445C123.91 60.0449 123.864 59.9255 123.864 59.7861C123.864 59.7263 123.874 59.6699 123.894 59.6168C124.504 57.8911 125.43 55.5448 126.671 52.5779C126.758 52.3655 126.914 52.2593 127.139 52.2593C127.285 52.2593 127.408 52.3124 127.508 52.4186C127.607 52.5181 127.657 52.6376 127.657 52.777C127.657 52.85 127.644 52.9197 127.617 52.9861C127.352 53.5834 126.897 54.6222 126.253 56.1023C126.194 56.2483 126.164 56.3678 126.164 56.4607C126.164 56.5868 126.21 56.6499 126.303 56.6499C126.396 56.6499 126.512 56.5968 126.652 56.4906C126.957 56.2583 127.252 56.1421 127.538 56.1421C128.016 56.1421 128.347 56.328 128.533 56.6997C128.666 56.9585 128.786 57.4398 128.892 58.1433C128.958 58.5947 129.014 58.8734 129.061 58.9796C129.141 59.1987 129.283 59.3082 129.489 59.3082C130.106 59.3082 130.634 58.6743 131.072 57.4066C131.152 57.1743 131.314 57.0581 131.56 57.0581C131.706 57.0581 131.829 57.1112 131.928 57.2174C132.028 57.317 132.078 57.4431 132.078 57.5957C132.078 57.6687 132.064 57.7418 132.038 57.8148ZM141.964 54.6985C141.964 54.8379 141.914 54.9574 141.815 55.0569C141.722 55.1565 141.606 55.2063 141.466 55.2063C141.333 55.2063 141.221 55.1598 141.128 55.0669C140.789 54.735 140.391 54.4297 139.933 54.1509C139.787 54.0646 139.714 53.9319 139.714 53.7527C139.714 53.6199 139.76 53.5071 139.853 53.4142C139.953 53.3146 140.069 53.2648 140.202 53.2648C140.281 53.2648 140.364 53.2914 140.451 53.3445C140.915 53.6233 141.367 53.9518 141.805 54.3301C141.911 54.4231 141.964 54.5459 141.964 54.6985ZM141.516 58.7706C141.516 59.494 141.095 59.9819 140.252 60.2341C139.76 60.3801 138.947 60.4531 137.812 60.4531C137.062 60.4531 136.521 60.3967 136.19 60.2839C135.605 60.0848 135.33 59.6832 135.363 59.0792C135.376 58.8137 135.25 58.671 134.985 58.6511C134.606 58.6179 134.311 58.4785 134.099 58.2329C133.893 57.9807 133.79 57.6555 133.79 57.2572C133.79 56.7992 133.926 56.3579 134.198 55.9331C134.497 55.4684 134.892 55.2096 135.383 55.1565C135.569 55.1366 135.695 55.1133 135.761 55.0868C135.834 55.0536 135.871 54.9839 135.871 54.8777C135.871 54.5459 135.702 54.3866 135.363 54.3998C135.051 54.4131 134.689 54.4197 134.278 54.4197C134.145 54.4197 134.032 54.3733 133.939 54.2804C133.847 54.1808 133.8 54.0646 133.8 53.9319C133.8 53.7991 133.85 53.6863 133.949 53.5934C134.056 53.4938 134.175 53.4474 134.308 53.454C134.673 53.4739 135.035 53.4772 135.393 53.464C135.712 53.4573 135.871 53.2847 135.871 52.9462V52.5679C135.871 52.4285 135.917 52.309 136.01 52.2095C136.11 52.1099 136.229 52.0601 136.369 52.0601C136.508 52.0601 136.628 52.1099 136.727 52.2095C136.827 52.309 136.876 52.4285 136.876 52.5679V52.767C136.876 53.079 137.013 53.235 137.285 53.235C137.384 53.235 137.52 53.2117 137.693 53.1653C137.872 53.1122 138.008 53.0856 138.101 53.0856C138.234 53.0856 138.347 53.1321 138.44 53.225C138.539 53.3179 138.589 53.4341 138.589 53.5735C138.589 53.839 138.453 53.9983 138.181 54.0514C137.909 54.0978 137.633 54.1476 137.354 54.2007C137.036 54.2936 136.876 54.4762 136.876 54.7483V55.4153C136.876 55.5813 136.913 55.8634 136.986 56.2616C137.006 56.3678 137.016 56.4873 137.016 56.62C137.016 56.9585 136.913 57.3767 136.707 57.8745C136.508 58.3723 136.409 58.7141 136.409 58.9C136.409 59.1655 136.588 59.338 136.946 59.4177C137.152 59.4642 137.504 59.4874 138.002 59.4874C139.641 59.4874 140.461 59.2119 140.461 58.661C140.461 58.3624 140.408 57.9309 140.301 57.3667C140.268 57.2074 140.301 57.0681 140.401 56.9486C140.507 56.8291 140.643 56.7694 140.809 56.7694C141.081 56.7694 141.247 56.9021 141.307 57.1676C141.446 57.7915 141.516 58.3258 141.516 58.7706ZM136.05 56.62C136.05 56.1952 135.861 55.9828 135.483 55.9828C135.244 55.9828 135.045 56.1322 134.885 56.4309C134.753 56.6831 134.686 56.9419 134.686 57.2074C134.686 57.6057 134.882 57.8048 135.274 57.8048C135.532 57.8048 135.735 57.6422 135.881 57.317C135.994 57.0647 136.05 56.8324 136.05 56.62ZM151.86 56.1023C151.86 56.2483 151.804 56.3745 151.691 56.4807C151.027 57.1178 150.334 57.4364 149.61 57.4364C149.02 57.4364 148.309 57.1776 147.48 56.6599C146.843 56.2616 146.315 56.0625 145.897 56.0625C145.419 56.0625 144.954 56.2815 144.503 56.7196C144.417 56.8059 144.304 56.849 144.164 56.849C144.025 56.849 143.905 56.7992 143.806 56.6997C143.706 56.6001 143.657 56.4807 143.657 56.3413C143.657 56.1952 143.713 56.0691 143.826 55.9629C144.49 55.3257 145.187 55.0071 145.917 55.0071C146.507 55.0071 147.218 55.266 148.047 55.7837C148.684 56.182 149.212 56.3811 149.63 56.3811C150.101 56.3811 150.563 56.1621 151.014 55.724C151.1 55.6377 151.217 55.5946 151.363 55.5946C151.502 55.5946 151.618 55.6443 151.711 55.7439C151.811 55.8435 151.86 55.9629 151.86 56.1023ZM160.98 59.5471C160.98 59.8325 160.837 59.9951 160.552 60.035C159.457 60.1876 158.362 60.264 157.267 60.264C155.315 60.264 154.339 59.6766 154.339 58.5017C154.339 57.7849 154.841 57.0415 155.843 56.2716C156.049 56.1123 156.151 55.9364 156.151 55.7439C156.151 55.651 156.128 55.5514 156.082 55.4452C155.849 54.881 155.607 54.0879 155.355 53.0657C155.348 53.0392 155.345 53.0027 155.345 52.9562C155.345 52.8102 155.395 52.6874 155.494 52.5878C155.601 52.4816 155.727 52.4285 155.873 52.4285C155.999 52.4285 156.108 52.4717 156.201 52.558C156.301 52.6442 156.364 52.7504 156.39 52.8765C156.53 53.5867 156.712 54.2538 156.938 54.8777C157.018 55.0968 157.144 55.2063 157.316 55.2063C157.409 55.2063 157.506 55.1764 157.605 55.1167C158.116 54.8379 158.85 54.4363 159.805 53.912C159.892 53.8655 159.971 53.8423 160.044 53.8423C160.184 53.8423 160.3 53.8921 160.393 53.9916C160.492 54.0912 160.542 54.2107 160.542 54.35C160.542 54.5624 160.449 54.7118 160.263 54.7981C159.354 55.2295 158.471 55.7074 157.615 56.2317C156.925 56.6565 156.444 56.9851 156.171 57.2174C155.654 57.6687 155.395 58.0736 155.395 58.432C155.395 59.0294 156.019 59.3281 157.267 59.3281C158.295 59.3281 159.341 59.2385 160.403 59.0593C160.549 59.0327 160.681 59.0692 160.801 59.1688C160.92 59.2684 160.98 59.3945 160.98 59.5471ZM162.294 52.7869C162.294 52.8865 162.255 52.9728 162.175 53.0458C162.102 53.1188 162.016 53.1553 161.916 53.1553C161.77 53.1553 161.661 53.0989 161.587 52.9861C161.375 52.6741 161.179 52.4186 161 52.2194C160.934 52.1464 160.901 52.0668 160.901 51.9805C160.901 51.7283 161.027 51.6022 161.279 51.6022C161.365 51.6022 161.455 51.6486 161.548 51.7416C161.787 51.9805 162.012 52.2593 162.225 52.5779C162.271 52.6708 162.294 52.7405 162.294 52.7869ZM161.13 53.3345C161.13 53.4341 161.093 53.5204 161.02 53.5934C160.954 53.6664 160.867 53.7029 160.761 53.7029C160.622 53.7029 160.456 53.5801 160.263 53.3345C160.124 53.1487 159.985 52.9628 159.845 52.777C159.772 52.704 159.736 52.621 159.736 52.5281C159.736 52.2759 159.862 52.1498 160.114 52.1498C160.214 52.1498 160.306 52.1962 160.393 52.2891C160.665 52.5945 160.887 52.8732 161.06 53.1254C161.106 53.1918 161.13 53.2615 161.13 53.3345Z" fill="white"/>
</svg>
